<svg xmlns="http://www.w3.org/2000/svg" xmlns:xlink="http://www.w3.org/1999/xlink" width="500" zoomAndPan="magnify" viewBox="0 0 375 374.999991" height="500" preserveAspectRatio="xMidYMid meet" version="1.2"><defs><clipPath id="9a1a34941c"><path d="M 42.890625 0 L 332.390625 0 L 332.390625 375 L 42.890625 375 Z M 42.890625 0 "/></clipPath><clipPath id="fcdabe8c85"><path d="M 42.890625 85 L 332.390625 85 L 332.390625 290 L 42.890625 290 Z M 42.890625 85 "/></clipPath></defs><g id="29c8450461"><g clip-rule="nonzero" clip-path="url(#9a1a34941c)"><path style=" stroke:none;fill-rule:nonzero;fill:#964607;fill-opacity:1;" d="M 332.105469 85.742188 L 332.105469 152.320312 C 332.105469 193.046875 299.085938 226.0625 258.359375 226.0625 L 137.964844 226.0625 C 137.351562 226.0625 136.742188 226.121094 136.136719 226.242188 C 135.53125 226.363281 134.945312 226.539062 134.378906 226.777344 C 133.808594 227.011719 133.269531 227.300781 132.757812 227.644531 C 132.246094 227.984375 131.769531 228.375 131.335938 228.808594 C 130.898438 229.246094 130.511719 229.71875 130.167969 230.230469 C 129.828125 230.742188 129.539062 231.28125 129.300781 231.851562 C 129.066406 232.421875 128.886719 233.007812 128.769531 233.609375 C 128.648438 234.214844 128.585938 234.824219 128.585938 235.441406 L 128.585938 374.953125 C 121.066406 374.964844 113.671875 374 106.40625 372.054688 C 99.140625 370.113281 92.253906 367.257812 85.746094 363.492188 C 60.121094 348.675781 42.894531 320.984375 42.894531 289.261719 L 42.894531 217.324219 C 42.894531 176.597656 75.914062 143.582031 116.640625 143.582031 L 237.035156 143.582031 C 237.648438 143.582031 238.257812 143.523438 238.863281 143.402344 C 239.46875 143.28125 240.054688 143.105469 240.625 142.871094 C 241.191406 142.632812 241.734375 142.34375 242.246094 142.003906 C 242.757812 141.660156 243.230469 141.273438 243.667969 140.835938 C 244.101562 140.402344 244.492188 139.925781 244.832031 139.414062 C 245.175781 138.902344 245.464844 138.363281 245.699219 137.792969 C 245.933594 137.222656 246.113281 136.636719 246.234375 136.035156 C 246.351562 135.429688 246.414062 134.820312 246.414062 134.203125 L 246.414062 0.046875 C 253.933594 0.0351562 261.328125 1 268.59375 2.945312 C 275.859375 4.886719 282.746094 7.742188 289.253906 11.507812 C 314.871094 26.328125 332.105469 54.023438 332.105469 85.742188 Z M 128.585938 0.046875 C 81.261719 0.046875 42.894531 38.410156 42.894531 85.738281 L 42.894531 150.34375 C 90.222656 150.34375 128.585938 111.980469 128.585938 64.652344 Z M 246.414062 374.953125 C 293.738281 374.953125 332.105469 336.589844 332.105469 289.261719 L 332.105469 219.292969 C 284.777344 219.292969 246.414062 257.660156 246.414062 304.984375 Z M 246.414062 374.953125 "/></g><g clip-rule="nonzero" clip-path="url(#fcdabe8c85)"><path style=" stroke:none;fill-rule:nonzero;fill:#f36a00;fill-opacity:1;" d="M 332.105469 85.742188 L 332.105469 152.320312 C 332.105469 193.046875 299.085938 226.0625 258.359375 226.0625 L 137.964844 226.0625 C 80.871094 226.0625 42.890625 226.78125 42.890625 289.257812 L 42.890625 217.324219 C 42.890625 176.597656 75.90625 143.582031 116.632812 143.582031 L 237.035156 143.582031 C 262.847656 143.582031 332.105469 144.238281 332.105469 85.742188 Z M 332.105469 85.742188 "/></g><path style=" stroke:none;fill-rule:nonzero;fill:#e0701d;fill-opacity:1;" d="M 131.460938 228.683594 C 130.542969 229.566406 129.832031 230.59375 129.332031 231.769531 C 128.832031 232.941406 128.585938 234.164062 128.585938 235.441406 L 128.585938 374.953125 C 121.066406 374.964844 113.671875 374 106.40625 372.054688 C 99.140625 370.113281 92.253906 367.257812 85.746094 363.492188 C 51.308594 273.683594 111.003906 237.96875 131.460938 228.683594 Z M 289.257812 11.515625 C 282.746094 7.75 275.859375 4.894531 268.59375 2.953125 C 261.328125 1.007812 253.9375 0.0429688 246.414062 0.0546875 L 246.414062 134.203125 C 246.417969 135.605469 246.121094 136.9375 245.523438 138.207031 C 244.925781 139.472656 244.085938 140.550781 243.003906 141.441406 C 263.402344 133.234375 327.097656 99.6875 289.257812 11.515625 Z M 289.257812 11.515625 "/><g style="fill:#f36a00;fill-opacity:1;"><g transform="translate(181.799993, 202.499987)"><path style="stroke:none" d="M 5.796875 -24.125 C 4.828125 -24.125 4.035156 -24.421875 3.421875 -25.015625 C 2.804688 -25.609375 2.5 -26.375 2.5 -27.3125 C 2.5 -28.226562 2.804688 -28.984375 3.421875 -29.578125 C 4.035156 -30.171875 4.828125 -30.46875 5.796875 -30.46875 C 6.453125 -30.46875 7.03125 -30.332031 7.53125 -30.0625 C 8.039062 -29.789062 8.4375 -29.414062 8.71875 -28.9375 C 9 -28.457031 9.140625 -27.914062 9.140625 -27.3125 C 9.140625 -26.695312 9 -26.144531 8.71875 -25.65625 C 8.4375 -25.175781 8.039062 -24.800781 7.53125 -24.53125 C 7.03125 -24.257812 6.453125 -24.125 5.796875 -24.125 Z M 1.6875 9.140625 C 0.09375 9.140625 -1.1875 8.929688 -2.15625 8.515625 L -1.484375 4.265625 L -1.109375 4.140625 C -0.585938 4.390625 0.0195312 4.515625 0.71875 4.515625 C 2.3125 4.515625 3.109375 3.578125 3.109375 1.703125 L 3.109375 -21.546875 L 8.515625 -21.546875 L 8.515625 1.546875 C 8.515625 4.054688 7.9375 5.945312 6.78125 7.21875 C 5.625 8.5 3.925781 9.140625 1.6875 9.140625 Z M 1.6875 9.140625 "/></g></g></g></svg>